<mxfile host="app.diagrams.net" agent="Mozilla/5.0 (Windows NT 10.0; Win64; x64) AppleWebKit/537.36 (KHTML, like Gecko) Chrome/128.0.0.0 Safari/537.36 Edg/128.0.0.0" version="24.7.14">
  <diagram name="Page-1" id="2aOIWHoPZPGGFikaW2z_">
    <mxGraphModel>
      <root>
        <mxCell id="0" />
        <mxCell id="1" parent="0" />
        <mxCell id="2" value="Start" style="ellipse;aspect=fixed;strokeWidth=2;whiteSpace=wrap;" vertex="1" parent="1">
          <mxGeometry x="123" y="8" width="50" height="50" as="geometry" />
        </mxCell>
        <mxCell id="3" value="Existence" style="rounded=1;arcSize=40;strokeWidth=2" vertex="1" parent="1">
          <mxGeometry x="100" y="108" width="98" height="49" as="geometry" />
        </mxCell>
        <mxCell id="4" value="Experience" style="rounded=1;arcSize=40;strokeWidth=2" vertex="1" parent="1">
          <mxGeometry x="19" y="207" width="109" height="49" as="geometry" />
        </mxCell>
        <mxCell id="5" value="Meaning" style="rounded=1;arcSize=40;strokeWidth=2" vertex="1" parent="1">
          <mxGeometry x="179" y="207" width="89" height="49" as="geometry" />
        </mxCell>
        <mxCell id="6" value="Discover personal purpose" style="rounded=1;arcSize=40;strokeWidth=2" vertex="1" parent="1">
          <mxGeometry x="8" y="306" width="217" height="49" as="geometry" />
        </mxCell>
        <mxCell id="7" value="Fulfillment" style="rounded=1;arcSize=40;strokeWidth=2" vertex="1" parent="1">
          <mxGeometry x="275" y="306" width="109" height="49" as="geometry" />
        </mxCell>
        <mxCell id="8" value="Contribution to society" style="rounded=1;arcSize=40;strokeWidth=2" vertex="1" parent="1">
          <mxGeometry x="232" y="404" width="195" height="49" as="geometry" />
        </mxCell>
        <mxCell id="9" value="Positive impact on others" style="rounded=1;arcSize=40;strokeWidth=2" vertex="1" parent="1">
          <mxGeometry x="224" y="503" width="212" height="49" as="geometry" />
        </mxCell>
        <mxCell id="10" value="" style="curved=1;startArrow=none;endArrow=block;exitX=0.51;exitY=1.01;entryX=0.5;entryY=0.01;" edge="1" parent="1" source="2" target="3">
          <mxGeometry relative="1" as="geometry">
            <Array as="points" />
          </mxGeometry>
        </mxCell>
        <mxCell id="11" value="" style="curved=1;startArrow=none;endArrow=block;exitX=0.12;exitY=1;entryX=0.5;entryY=0;" edge="1" parent="1" source="3" target="4">
          <mxGeometry relative="1" as="geometry">
            <Array as="points">
              <mxPoint x="74" y="182" />
            </Array>
          </mxGeometry>
        </mxCell>
        <mxCell id="12" value="" style="curved=1;startArrow=none;endArrow=block;exitX=0.87;exitY=1;entryX=0.5;entryY=0;" edge="1" parent="1" source="3" target="5">
          <mxGeometry relative="1" as="geometry">
            <Array as="points">
              <mxPoint x="223" y="182" />
            </Array>
          </mxGeometry>
        </mxCell>
        <mxCell id="13" value="" style="curved=1;startArrow=none;endArrow=block;exitX=0;exitY=0.92;entryX=0.5;entryY=-0.01;" edge="1" parent="1" source="5" target="6">
          <mxGeometry relative="1" as="geometry">
            <Array as="points">
              <mxPoint x="117" y="281" />
            </Array>
          </mxGeometry>
        </mxCell>
        <mxCell id="14" value="" style="curved=1;startArrow=none;endArrow=block;exitX=1;exitY=0.92;entryX=0.5;entryY=-0.01;" edge="1" parent="1" source="5" target="7">
          <mxGeometry relative="1" as="geometry">
            <Array as="points">
              <mxPoint x="330" y="281" />
            </Array>
          </mxGeometry>
        </mxCell>
        <mxCell id="15" value="" style="curved=1;startArrow=none;endArrow=block;exitX=0.5;exitY=0.99;entryX=0.5;entryY=0.01;" edge="1" parent="1" source="7" target="8">
          <mxGeometry relative="1" as="geometry">
            <Array as="points" />
          </mxGeometry>
        </mxCell>
        <mxCell id="16" value="" style="curved=1;startArrow=none;endArrow=block;exitX=0.5;exitY=1;entryX=0.5;entryY=0;" edge="1" parent="1" source="8" target="9">
          <mxGeometry relative="1" as="geometry">
            <Array as="points" />
          </mxGeometry>
        </mxCell>
      </root>
    </mxGraphModel>
  </diagram>
</mxfile>
